<svg width="512" height="512"><path d="M400.352 215.31a6.06 6.06 0 0 1 0-12.119h99.66a6.06 6.06 0 0 1 0 12.12zm-68.23 36.923a6.06 6.06 0 0 1-.001-12.12h145.227a6.06 6.06 0 0 1 0 12.12zM73.094 342.924a48.214 48.214 0 0 1 47.689-39.67c23.834 0 43.629 17.008 47.669 39.388l126.887.262a48.214 48.214 0 0 1 47.688-39.65c25.43 0 46.295 19.37 48.234 44.013h20.26a17.431 17.431 0 0 0 17.612-17.25v-50.556a6.06 6.06 0 0 1 12.12 0v50.556c0 16.24-13.331 29.37-29.733 29.37h-20.824a48.234 48.234 0 0 1-47.649 39.386c-25.328 0-46.153-19.229-48.213-43.75l-125.797-.242c-1.939 24.642-22.824 44.012-48.234 44.012-25.329 0-46.153-19.249-48.214-43.75H35.203c-16.058 0-29.268-12.099-29.268-27.288v-66.312c0-6.766.404-10.765 2.303-15.734.808-2.06 1.818-4.04 3.838-6.807l66.473-65.504a30.096 30.096 0 0 1 23.026-10.442h26.178v-22.582c0-14.947 11.553-27.167 25.975-27.167H419.54c14.422 0 25.975 12.24 25.975 27.167v32.863a6.06 6.06 0 0 1-12.119 0v-32.863c0-8.383-6.302-15.048-13.876-15.048H153.708c-7.555 0-13.836 6.665-13.836 15.048v68.877a6.06 6.06 0 1 1-12.12 0v-34.197h-26.177a18.36 18.36 0 0 0-14.139 6.545l-66.09 65.019a16.623 16.623 0 0 0-1.777 3.434c-1.212 3.17-1.515 6.019-1.515 11.391v66.312c0 8.241 7.555 15.15 17.149 15.15h37.892zm83.966 8.08c0-19.653-16.22-35.63-36.277-35.63-20.037 0-36.256 15.977-36.256 35.65 0 19.653 16.22 35.65 36.256 35.65 20.057 0 36.277-15.997 36.277-35.65zm222.244 0c0-19.653-16.22-35.63-36.277-35.63-20.037 0-36.256 15.977-36.256 35.65 0 19.653 16.22 35.65 36.256 35.65 20.057 0 36.277-15.997 36.277-35.65z"/></svg>